<svg xmlns="http://www.w3.org/2000/svg" xmlns:xlink="http://www.w3.org/1999/xlink" version="1.1" x="0px" y="0px" viewBox="0 0 100 125" enable-background="new 0 0 100 100" xml:space="preserve"><path fill="#000000" d="M85.851,38.69c0-2.587-1.565-4.799-3.781-5.706c1.638-1.098,2.72-2.989,2.72-5.139  c0-2.926-2.003-5.374-4.685-5.992c0.502-0.898,0.791-1.938,0.791-3.045c0-3.394-2.694-6.146-6.018-6.146  c-0.911,0-1.774,0.208-2.549,0.578c0.047-0.306,0.07-0.62,0.07-0.939c0-3.394-2.694-6.146-6.018-6.146  c-1.851,0-3.506,0.854-4.61,2.198c-0.17-3.239-2.795-5.813-6.009-5.813c-2.266,0-4.237,1.279-5.264,3.168  c-1.026-1.889-2.999-3.168-5.265-3.168c-3.214,0-5.839,2.574-6.008,5.813c-1.104-1.343-2.759-2.198-4.611-2.198  c-3.323,0-6.018,2.751-6.018,6.146c0,0.319,0.024,0.633,0.07,0.939c-0.773-0.37-1.637-0.578-2.547-0.578  c-3.323,0-6.018,2.752-6.018,6.146c0,1.108,0.289,2.147,0.792,3.045c-2.682,0.619-4.685,3.066-4.685,5.992  c0,2.15,1.082,4.042,2.72,5.139c-2.216,0.907-3.782,3.119-3.782,5.706c0,2.541,1.51,4.721,3.663,5.657  c-0.957,1.088-1.539,2.526-1.539,4.104c0,3.004,2.113,5.505,4.904,6.04c-1.213,1.087-1.996,2.925-1.996,5.049v4.941  c0,3.417,2.026,6.095,4.612,6.095c0.647,0,1.259-0.168,1.813-0.473v4.174c0,13.08,10.642,23.722,23.721,23.722  c13.08,0,23.722-10.642,23.722-23.722v-4.131c0.532,0.277,1.114,0.43,1.73,0.43c2.587,0,4.612-2.678,4.612-6.095v-4.941  c0-2.088-0.756-3.897-1.934-4.991c2.971-0.376,5.271-2.961,5.271-6.097c0-1.578-0.583-3.016-1.539-4.104  C84.341,43.411,85.851,41.23,85.851,38.69z M26.604,53.916c-0.098-0.055-0.199-0.103-0.3-0.148c0.102-0.06,0.203-0.123,0.3-0.19  V53.916z M74.33,53.536c0.063,0.044,0.128,0.087,0.193,0.129c-0.136,0.048-0.269,0.104-0.399,0.168  C74.191,53.734,74.261,53.636,74.33,53.536z M24.792,68.269c-1.228,0-2.306-1.771-2.306-3.788v-4.941c0-2.02,1.078-3.79,2.306-3.79  c0.718,0,1.383,0.605,1.813,1.509v9.503C26.175,67.665,25.509,68.269,24.792,68.269z M50.325,95.032  c-11.444,0-20.755-9.311-20.755-20.756v-18.26c2.042-4.518,5.8-8.734,5.8-8.734s0.823-3.775,0.823-3.865  c3.954-1.348,14.085-1.184,14.085-1.184h0.385c0,0,10.132-0.165,14.085,1.184c0,0.09,0.824,3.865,0.824,3.865  s3.422,3.84,5.509,8.116v18.878C71.081,85.722,61.771,95.032,50.325,95.032z M78.084,64.48c0,2.018-1.079,3.788-2.307,3.788  c-0.674,0-1.3-0.531-1.73-1.344v-9.831c0.431-0.812,1.057-1.345,1.73-1.345c1.228,0,2.307,1.771,2.307,3.79V64.48z"/><text x="0" y="115" fill="#000000" font-size="5px" font-weight="bold" font-family="'Helvetica Neue', Helvetica, Arial-Unicode, Arial, Sans-serif">Created by Kenneth Appiah</text><text x="0" y="120" fill="#000000" font-size="5px" font-weight="bold" font-family="'Helvetica Neue', Helvetica, Arial-Unicode, Arial, Sans-serif">from the Noun Project</text></svg>